# xmcd CD database file
#
# Track frame offsets:
#	150
#	29320
#	56703
#	81422
#	102441
#	134740
#	163169
#	189851
#	224080
#	246626
#
# Disc length: 3530 seconds
#
# Revision: 0
# Processed by: cddbd v1.5.2PL0 Copyright (c) Steve Scherf et al.
# Submitted via: CDex 1.51
#
DISCID=9d0dc80a
DTITLE=Axel Kuehn Trio - Zeitgeist
DYEAR=2016
DGENRE=Jazz
TTITLE0=Origami Crane
TTITLE1=Bedu
TTITLE2=Serious Nonsense
TTITLE3=Dark Light
TTITLE4=Zeitgeist
TTITLE5=Hunting And Gathering
TTITLE6=Cat`s In The Cradle
TTITLE7=Step By Step
TTITLE8=Chaos Theory
TTITLE9=Faded Flowers
EXTD=YEAR: 2016
EXTT0=
EXTT1=
EXTT2=
EXTT3=
EXTT4=
EXTT5=
EXTT6=
EXTT7=
EXTT8=
EXTT9=
PLAYORDER=
